inDegrees=yes
name=IK-live
DataType=double
version=3
OpenSimVersion=4.1
endheader
time	pelvis_tilt	pelvis_list	pelvis_rotation	pelvis_tx	pelvis_ty	pelvis_tz	hip_flexion_r	hip_adduction_r	hip_rotation_r	knee_angle_r	ankle_angle_r	subtalar_angle_r	mtp_angle_r	hip_flexion_l	hip_adduction_l	hip_rotation_l	knee_angle_l	ankle_angle_l	subtalar_angle_l	mtp_angle_l	lumbar_extension	lumbar_bending	lumbar_rotation	neck_flex	neck_latbend	neck_rot	arm_flex_r	arm_add_r	arm_rot_r	elbow_flex_r	pro_sup_r	wrist_flex_r	wrist_dev_r	arm_flex_l	arm_add_l	arm_rot_l	elbow_flex_l	pro_sup_l	wrist_flex_l	wrist_dev_l
39.7746138	32.21704382371913	1.368962056225283	43.17622650586794	0.2341366603171506	0.04326292228651554	-1.326684523481465	-22.57117169827992	-1.591976316804377	-3.241458145969817	5.899560354604904	2.451982624139334	1.987972377786656	0	-24.74788768789517	-3.395140484746916	-11.58000132048591	9.793848132074926	-0.4439473045988533	4.250290820099795	0	-21.37711699760957	1.659277491615732	3.206407148933037	0	0	0	0.7874188243685465	-15.17647095213325	33.30202095781402	7.133784520418891	24.89821357045324	0	0.02337060331556537	5.877749011580835	-13.23010885663057	43.88491503408466	6.951791390748404	33.49194052607221	0	0.02337060331556537
39.9494682	30.08533944547133	0.4982609568079143	39.21443913936713	0.2341366603171506	0.04326292228651554	-1.326684523481465	-22.57117169827992	-1.591976316804377	-3.241458145969817	5.899560354604904	2.451982624139334	1.987972377786656	0	-24.74788768789517	-3.395140484746916	-11.58000132048591	9.793848132074926	-0.4439473045988533	4.250290820099795	0	-21.37711699760957	1.659277491615732	3.206407148933037	0	0	0	0.7870469528752561	-15.17647258146438	33.30250511295323	7.127290946998647	24.89696306313803	0	0.02279933179694311	5.877410542269272	-13.23009251090005	43.88563685182756	6.945128797364911	33.49132595470663	0	0.02279933179694311
40.1244011	25.90617908439205	1.390968447624566	35.86730114925714	0.2341366603171506	0.04326292228651554	-1.326684523481465	-22.57117169827992	-1.591976316804377	-3.241458145969817	5.899560354604904	2.451982624139334	1.987972377786656	0	-24.74788768789517	-3.395140484746916	-11.58000132048591	9.793848132074926	-0.4439473045988533	4.250290820099795	0	-21.37711699760957	1.659277491615732	3.206407148933037	0	0	0	0.7858622265802936	-15.17647777254988	33.3040479149831	7.106407788644984	24.89297272124596	0	0.0209751157823859	5.876332234668441	-13.23004043303053	43.8879372655131	6.923693612318647	33.489365758804	0	0.0209751157823859
40.2992844	35.83543295646615	-8.404701370388841	19.78022742281361	0.2341366603171506	0.04326292228651554	-1.326684523481465	-22.57117169827992	-1.591976316804377	-3.241458145969817	5.899560354604904	2.451982624139334	1.987972377786656	0	-24.74788768789517	-3.395140484746916	-11.58000132048591	9.793848132074926	-0.4439473045988533	4.250290820099795	0	-21.37711699760957	1.659277491615732	3.206407148933037	0	0	0	0.7883174651593636	-15.1764670167319	33.30085206138713	7.149596416936313	24.90123326867608	0	0.02475082398489894	5.878566992408476	-13.23014833723597	43.88317254257682	6.968022015489459	33.49342414341013	0	0.02475082398489894
40.4502143	35.35225649326131	-13.6354972452134	5.382628240826401	0.2341366603171506	0.04326292228651554	-1.326684523481465	-22.57117169827992	-1.591976316804377	-3.241458145969817	5.899560354604904	2.451982624139334	1.987972377786656	0	-24.74788768789517	-3.395140484746916	-11.58000132048591	9.793848132074926	-0.4439473045988533	4.250290820099795	0	-21.37711699760957	1.659277491615732	3.206407148933037	0	0	0	0.7868523146626888	-15.17647343134206	33.30275621220646	7.124065043423261	24.89633337632639	0	0.02251601950184051	5.87723333284761	-13.23008398481539	43.88601009838937	6.941812166541636	33.49101433595191	0	0.02251601950184051
40.625077	35.84913820689747	-22.93068462263022	-9.245489429115748	0.2341366603171506	0.04326292228651554	-1.326684523481465	-22.57117169827992	-1.591976316804377	-3.241458145969817	5.899560354604904	2.451982624139334	1.987972377786656	0	-24.74788768789517	-3.395140484746916	-11.58000132048591	9.793848132074926	-0.4439473045988533	4.250290820099795	0	-21.37711699760957	1.659277491615732	3.206407148933037	0	0	0	0.7879264870958522	-15.1764687293927	33.3013605873204	7.142710012102044	24.8999286134598	0	0.0241573741868393	5.878211144801758	-13.23013115553243	43.88393032203833	6.960941880767801	33.49278204085886	0	0.0241573741868393
40.7999582	27.86605256524076	-19.58420423319266	-3.750423240366632	0.2341366603171506	0.04326292228651554	-1.326684523481465	-22.57117169827992	-1.591976316804377	-3.241458145969817	5.899560354604904	2.451982624139334	1.987972377786656	0	-24.74788768789517	-3.395140484746916	-11.58000132048591	9.793848132074926	-0.4439473045988533	4.250290820099795	0	-21.37711699760957	1.659277491615732	3.206407148933037	0	0	0	0.7861466466642406	-15.17647651932725	33.30367216653612	7.112093164426168	24.89398378546679	0	0.02144552404042361	5.876590949242498	-13.23005300566251	43.88737450200257	6.929537743152269	33.48985759121383	0	0.02144552404042361
40.9748941	25.1757796843562	-18.96162047260815	-1.887122913919556	0.2341366603171506	0.04326292228651554	-1.326684523481465	-22.57117169827992	-1.591976316804377	-3.241458145969817	5.899560354604904	2.451982624139334	1.987972377786656	0	-24.74788768789517	-3.395140484746916	-11.58000132048591	9.793848132074926	-0.4439473045988533	4.250290820099795	0	-21.37711699760957	1.659277491615732	3.206407148933037	0	0	0	0.7857893402791674	-15.1764780819099	33.30413530774253	7.106054613467731	24.89279817540659	0	0.02090572659993966	5.876265660001749	-13.23003732959837	43.88806418146164	6.923346296770562	33.48927367938322	0	0.02090572659993966
41.1497777	21.57980320719019	5.198084582007247	33.61048466460452	0.2341366603171506	0.04326292228651554	-1.326684523481465	-22.57117169827992	-1.591976316804377	-3.241458145969817	5.899560354604904	2.451982624139334	1.987972377786656	0	-24.74788768789517	-3.395140484746916	-11.58000132048591	9.793848132074926	-0.4439473045988533	4.250290820099795	0	-21.37711699760957	1.659277491615732	3.206407148933037	0	0	0	0.7836401690546126	-15.17648749701978	33.30693292444923	7.068112954837228	24.88556479515935	0	0.01759922892818644	5.874309489472972	-13.22994287560262	43.89223530865046	6.884396250053951	33.48572039069968	0	0.01759922892818644
41.3246642	23.12505746548512	9.949924533477741	49.66426802939996	0.2341366603171506	0.04326292228651554	-1.326684523481465	-22.57117169827992	-1.591976316804377	-3.241458145969817	5.899560354604904	2.451982624139334	1.987972377786656	0	-24.74788768789517	-3.395140484746916	-11.58000132048591	9.793848132074926	-0.4439473045988533	4.250290820099795	0	-21.37711699760957	1.659277491615732	3.206407148933037	0	0	0	0.7851355928751408	-15.17648095231409	33.30499099318087	7.094269922333674	24.89055655886935	0	0.0198750255572747	5.875670764707845	-13.2300085331381	43.88934193141541	6.911259395099174	33.48817560095638	0	0.0198750255572747
41.4995078	8.256478589944983	17.47952284614914	75.91910058469779	0.2341366603171506	0.04326292228651554	-1.326684523481465	-22.57117169827992	-1.591976316804377	-3.241458145969817	5.899560354604904	2.451982624139334	1.987972377786656	0	-24.74788768789517	-3.395140484746916	-11.58000132048591	9.793848132074926	-0.4439473045988533	4.250290820099795	0	-21.37711699760957	1.659277491615732	3.206407148933037	0	0	0	0.7834196791617721	-15.17648846591491	33.30722174038842	7.064614367932871	24.88481379264074	0	0.01725512555281179	5.874108863571464	-13.22993315545419	43.89266635756215	6.880835240768182	33.48535106117744	0	0.01725512555281179
41.6744001	-7.272736078610864	17.26085668998481	-255.5057359528505	0.2341366603171506	0.04326292228651554	-1.326684523481465	-22.57117169827992	-1.591976316804377	-3.241458145969817	5.899560354604904	2.451982624139334	1.987972377786656	0	-24.74788768789517	-3.395140484746916	-11.58000132048591	9.793848132074926	-0.4439473045988533	4.250290820099795	0	-21.37711699760957	1.659277491615732	3.206407148933037	0	0	0	0.7819742617257393	-15.17649479157603	33.30909869944857	7.039146502977798	24.87998741125126	0	0.01505447301965546	5.872793108339242	-13.22986969540826	43.89546301252291	6.854668976066266	33.48297769054061	0	0.01505447301965546
41.8493082	-21.88083372355855	4.596862216646473	-224.5354764061594	0.2341366603171506	0.04326292228651554	-1.326684523481465	-22.57117169827992	-1.591976316804377	-3.241458145969817	5.899560354604904	2.451982624139334	1.987972377786656	0	-24.74788768789517	-3.395140484746916	-11.58000132048591	9.793848132074926	-0.4439473045988533	4.250290820099795	0	-21.37711699760957	1.659277491615732	3.206407148933037	0	0	0	0.783371361218583	-15.17648867487616	33.30728308986865	7.063246974660695	24.88465653622093	0	0.01718342429560446	5.874064828091104	-13.22993105914125	43.89275755459263	6.879395333919773	33.48527470614594	0	0.01718342429560446
42.0002038	-26.43736178518656	-0.4597705796672024	-216.7029113127483	0.2341366603171506	0.04326292228651554	-1.326684523481465	-22.57117169827992	-1.591976316804377	-3.241458145969817	5.899560354604904	2.451982624139334	1.987972377786656	0	-24.74788768789517	-3.395140484746916	-11.58000132048591	9.793848132074926	-0.4439473045988533	4.250290820099795	0	-21.37711699760957	1.659277491615732	3.206407148933037	0	0	0	0.78416588508739	-15.17648519585777	33.30625017669522	7.076967304384586	24.88731617943744	0	0.01839695096567772	5.874788041704992	-13.22996596122793	43.89121821324245	6.893469783756516	33.48658278158226	0	0.01839695096567772
42.1751454	-19.61076694203966	2.817327467133491	-228.1477775278569	0.2341366603171506	0.04326292228651554	-1.326684523481465	-22.57117169827992	-1.591976316804377	-3.241458145969817	5.899560354604904	2.451982624139334	1.987972377786656	0	-24.74788768789517	-3.395140484746916	-11.58000132048591	9.793848132074926	-0.4439473045988533	4.250290820099795	0	-21.37711699760957	1.659277491615732	3.206407148933037	0	0	0	0.7836697452398985	-15.17648736666286	33.30689393544468	7.068603801403286	24.88566681245482	0	0.01764598615747152	5.874336389066174	-13.22994418337349	43.89217704126675	6.884896951194712	33.4857704902609	0	0.01764598615747152
